<svg width="23" height="36" viewBox="0 0 23 36" fill="none" xmlns="http://www.w3.org/2000/svg">
<g clip-path="url(#clip0)">
<rect y="13.75" width="22.25" height="22.25" fill="#F4F3F1"/>
<rect x="15.75" y="9.75" width="0.25" height="0.25" fill="#3A4F6E"/>
<rect x="16" y="9.75" width="0.25" height="0.25" fill="#F4F3F1"/>
<rect x="15.75" y="10" width="0.5" height="0.5" fill="#A44936"/>
<rect x="16.25" y="9.75" width="0.75" height="0.75" fill="#F4D30B"/>
<rect x="15.75" y="8.5" width="1.25" height="1.25" fill="#3F693A"/>
<rect x="13.75" y="8.5" width="2" height="2" fill="#F4F3F1"/>
<rect x="13.75" y="10.5" width="3.25" height="3.25" fill="#3A4F6E"/>
<rect x="13.75" y="8.5" width="8.5" height="5.25" fill="#F4D30B"/>
<rect x="13.75" width="8.5" height="8.5" fill="#AA4131"/>
<rect width="13.75" height="13.75" fill="#3A4F6E"/>
<path d="M20.25 6.5H22.25V11.75H20.25V6.5Z" fill="#3A4F6E"/>
<path d="M20.25 27.625H22.25V32.875H20.25V27.625Z" fill="#3A4F6E"/>
<ellipse cx="18" cy="18" rx="4.25" ry="4.25" fill="#3A4F6E"/>
</g>
<defs>
<clipPath id="clip0">
<rect width="22.25" height="36" fill="white"/>
</clipPath>
</defs>
</svg>
